<?xml version="1.0" encoding="utf-8"?>
<!-- Generator: Adobe Illustrator 14.0.0, SVG Export Plug-In . SVG Version: 6.00 Build 43363)  -->
<!DOCTYPE svg PUBLIC "-//W3C//DTD SVG 1.1//EN" "http://www.w3.org/Graphics/SVG/1.1/DTD/svg11.dtd">
<svg version="1.1" id="Layer_1" xmlns="http://www.w3.org/2000/svg" xmlns:xlink="http://www.w3.org/1999/xlink" x="0px" y="0px"
	 width="612px" height="792px" viewBox="0 0 612 792" enable-background="new 0 0 612 792" xml:space="preserve">
<g>
	<polygon fill-rule="evenodd" clip-rule="evenodd" stroke="#000000" stroke-width="0.216" stroke-miterlimit="2.6131" points="
		22.108,113.108 589.037,113.108 589.037,680.037 22.108,680.037 22.108,113.108 	"/>
	<path fill-rule="evenodd" clip-rule="evenodd" fill="#ED1C24" d="M315.465,388.358c-2.051,5.75-3.691,11.894-20.724,15.564
		c-5.888,0.764-10.006,1.529-14.229,2.295C275.649,407.496,313.006,389.28,315.465,388.358L315.465,388.358z"/>
	<path fill-rule="evenodd" clip-rule="evenodd" fill="#ED1C24" d="M229.611,401.639c-32.902-15.2-29.668-11.287-44.579-29.264
		C195.177,379.357,229.926,397.863,229.611,401.639L229.611,401.639z"/>
	<path fill-rule="evenodd" clip-rule="evenodd" fill="#ED1C24" d="M371.971,405.012c0.521,2.736,1.631,2.934,2.15,3.91
		c3.553,9.568,1.434,10.092,0.195,11.146c-1.365-1.764-2.342-3.201-5.279-2.346c-1.834,1.4-3.807,2.242-5.086,5.865
		c3.049,1.893,3.344,4.631-0.391,8.605c0.717,1.045,1.436,2.088,2.152,3.131c-2.869,2.543-2.869,4.563,0,6.063
		c1.564-0.977,3.391-0.652,5.477,0.979c4.775,6.525,3.139,9.85,0.586,12.709c-0.457-0.715-0.914-1.434-1.371-2.15
		c-8.898,5.021-13.133,4.305-15.252,0.979c-0.258-2.803-0.842-5.67-3.717-8.994c0.326-3.555,3.977-2.643,5.672-7.041
		c4.236-0.066,5.607-1.957,4.107-5.674c0.064-1.367,0.393-2.736,0.979-4.105c-0.652,0.262-1.305,0.521-1.957,0.781
		c-1.525-7.848,1.029-11.617,3.715-15.254c4.729,2.348,6.227-1.043,6.26-7.039c0.779-5.146,5.008-6.625,7.584-10.659
		C376.328,399.5,374.449,402.605,371.971,405.012L371.971,405.012z"/>
	
		<path fill-rule="evenodd" clip-rule="evenodd" fill="#D2AB67" stroke="#000000" stroke-width="0.216" stroke-miterlimit="2.6131" d="
		M207.949,247.619c-3.711,3.33-7.421,6.66-11.131,9.989c0.395-51.846,7.028-97.035,18.836-136.705
		C208.326,159.515,204.519,201.398,207.949,247.619L207.949,247.619z M476.527,604.982l-5.1,6.338l-3.246,2.471l-0.576,0.771
		c-1.854,1.303-3.707,2.607-5.561,3.908c16.941-22.43,33.113-47.271,47.188-91.334c0.48-5.131,0.566-10.092-2.121-13.863
		c-4.99-8.523-9.98-17.049-14.971-25.572c0.717,1.58,1.434,3.158,2.152,4.736c-3.732-6.121-7.461-12.244-11.191-18.365
		c-0.049,0.525-0.096,1.051-0.145,1.576c3.156,5.693,6.314,11.385,9.471,17.074c-3.492-5.881-6.982-11.766-10.475-17.646
		c0.217-0.406,0.432-0.814,0.646-1.221c0.047-1.004,0.096-2.008,0.143-3.012c0.061-0.945,0.121-1.889,0.182-2.836
		c-0.736-1.924-1.432-3.906-2.828-4.949c-1.84-1.225-3.68-2.451-5.518-3.68c-5.279-1.555-10.561-3.109-15.842-4.666
		c-5.611-1.926-11.469-2.877-17.682-2.404c-9.102-0.945-18.201-1.891-27.303-2.836c-0.842,11.363,6.801,12.521,12.875,15.566
		c0.848-0.096,1.697-0.188,2.547-0.283c8.453,2.434,16.957,4.615,25.885,4.809c-14.426-2.506-28.02-5.375-35.504-10.893
		c-0.236-0.848-0.473-1.695-0.707-2.545c0.99,0.566,1.98,1.131,2.969,1.697c-1.414-1.178-2.828-2.359-4.242-3.535
		c2.781,1.023,5.564,2.865,8.344,7.637c4.977,0.002,9.975,0.098,15.137,0.85c12.846,0.645,12.557,8.037,22.631,6.365
		c5.58,3.914,10.082,7.828,14.145,11.74c-2.146,0.102-7.473-4.131-12.162-7.496c-1.982-0.189-3.961-0.379-5.941-0.566
		c7.213,4.857,14.428,9.713,21.641,14.568c-0.566-1.604-1.131-3.205-1.695-4.809c1.365,2.264,2.732,4.527,4.102,6.791
		c-0.848-1.051-1.582-1.832-1.557-0.709c6.789,10.043,13.578,20.088,20.369,30.129c4.365,3.346,4.07,7.156,3.111,11.035
		c-0.426-2.217-0.848-4.434-1.273-6.648c-0.049,2.357-0.094,4.713-0.141,7.07c-0.883-2.324-1.584-4.637-4.102-7.07
		c-5.471-10.281-10.939-20.559-16.408-30.836c-1.752-2.547-3.26-5.094-8.912-7.639c-4.762-3.16-9.525-6.318-14.285-9.479
		c-1.818-1.988-4.256-3.496-8.064-3.959c-8.654-0.496-17.986-3.205-27.158-5.377c-0.707,0.566-1.414,1.133-2.121,1.697
		c-2.273-0.35-4.547-1.166-6.82-2.451c-4.822,9.869-9.137,28.895-1.818,33.373c0.932,0.053-1.867,0-2.801,0
		c1.199,1.369-1.637,4.26-6.303,7.844c0.234-0.514,0.469-1.027,0.701-1.541c-9.469,3.822-18.736,8.648-27.449,16.246
		c-0.328,1.119-0.654,2.238-0.98,3.359c0.381,12.818,1.322,23.949,3.502,31.371c-0.096-1.494-0.188-2.988-0.281-4.48
		c0.842,2.334,1.682,4.668,2.521,7.002c-0.188-1.496-0.373-2.988-0.561-4.482c0.887,1.68,1.775,3.361,2.66,5.043
		c0.469,0.512,0.934,1.025,1.402,1.539c-0.469-1.494-0.934-2.988-1.402-4.482c0.98,1.822,1.961,3.643,2.943,5.463
		c-0.609-2.66-1.215-5.322-1.822-7.982c1.168,2.473,2.334,4.947,3.5,7.424c-0.42-2.289-0.838-4.576-1.258-6.863
		c0.98,2.801,1.959,5.602,2.939,8.402c-0.418-2.848-0.838-5.695-1.26-8.543c1.354,3.129,2.707,6.256,4.061,9.383
		c-0.373-2.287-0.746-4.574-1.119-6.861c0.793,2.426,1.586,4.854,2.381,7.281c0.652,0.234,1.307,0.469,1.959,0.701
		c-0.699-2.43-1.398-4.855-2.1-7.283c1.494,2.568,2.988,5.137,4.48,7.703c-0.932-2.709-1.867-5.416-2.799-8.123
		c1.727,2.707,3.453,5.414,5.182,8.123c-1.215-2.801-2.428-5.604-3.643-8.402c1.682,2.709,3.361,5.416,5.041,8.123
		c-0.699-2.334-1.398-4.668-2.1-7.004c1.307,2.055,2.613,4.109,3.922,6.162c0.512-0.047,1.027-0.092,1.539-0.139
		c-1.119-2.383-2.24-4.762-3.361-7.143c1.449,2.473,2.895,4.947,4.342,7.422c0.514-0.188,1.029-0.375,1.541-0.561
		c-0.934-1.82-1.867-3.641-2.801-5.461c1.354,1.914,2.707,3.828,4.061,5.742c-0.561-2.055-1.119-4.109-1.682-6.162
		c0.889,1.867,1.777,3.732,2.662,5.602c-0.559-2.287-1.121-4.576-1.682-6.863c1.029,2.055,2.057,4.107,3.082,6.162
		c-0.373-2.287-0.746-4.574-1.119-6.861c0.887,2.24,1.773,4.482,2.66,6.723c-0.234-2.615-0.467-5.229-0.699-7.842
		c0.793,2.426,1.586,4.854,2.379,7.281c-0.373-3.361-0.746-6.723-1.119-10.084c0.746,3.223,1.492,6.443,2.242,9.664
		c0.045-1.775,0.092-3.547,0.139-5.322c0.561,1.447,1.119,2.895,1.68,4.342c-0.326-2.754-0.652-5.508-0.98-8.264
		c0.748,2.428,1.494,4.855,2.242,7.281c-0.281-3.08-0.561-6.16-0.842-9.242c1.355,3.596,2.709,7.189,4.063,10.783
		c-0.654-0.326-1.307-0.65-1.961-0.979c0.047,1.352,0.094,2.705,0.139,4.061c-0.465-0.84-0.932-1.682-1.398-2.521
		c-0.096,1.166-0.188,2.334-0.281,3.502c-0.42-0.934-0.84-1.867-1.26-2.799c-0.281,1.258-0.561,2.52-0.84,3.779
		c-0.422-0.607-0.842-1.213-1.262-1.82c-0.701,0.887-1.4,1.773-2.1,2.662c-18.889,21.475-21.574,15.311-24.648,7.141
		c2.23,18.629,6.805,33.848,13.725,45.656c4.295,3.174,8.59,6.348,12.885,9.521c-2.709-1.168-5.416-2.334-8.123-3.502
		c0,0,12.604,8.684,10.504,7.844c-2.102-0.84-8.545-4.061-8.545-4.061c3.875,2.566,7.75,5.135,11.625,7.703
		c-1.492-0.516-2.988-1.027-4.482-1.541c1.961,1.82,3.924,3.641,5.883,5.461c-0.654-0.047-1.309-0.092-1.959-0.141
		c1.588,2.568,3.172,5.135,4.76,7.703c-0.139-5.555-0.279-11.109-0.42-16.666c3.174,3.176,6.35,6.35,9.523,9.523
		c-3.033-2.006-6.068-4.014-9.104-6.021c2.895,2.848,5.789,5.695,8.682,8.543c-2.52-1.914-5.041-3.828-7.561-5.74
		c2.613,2.611,5.229,5.227,7.842,7.84c-2.008-1.213-4.014-2.426-6.02-3.641c2.939,2.615,5.879,5.229,8.82,7.842
		c-2.566-1.445-5.135-2.895-7.703-4.34c2.662,2.336,5.322,4.668,7.984,7.002c-2.334-0.84-4.668-1.682-7.004-2.52
		c2.66,1.633,5.322,3.268,7.984,4.9c-2.148-0.652-4.295-1.307-6.443-1.961c2.287,1.588,4.576,3.174,6.863,4.764
		c-1.729-0.469-3.455-0.936-5.182-1.402c1.959,1.354,3.92,2.707,5.883,4.061c-1.076-0.186-2.148-0.371-3.223-0.559
		c1.309,0.932,2.613,1.867,3.922,2.799c-0.98-0.186-1.961-0.373-2.941-0.559c0.748,0.746,1.494,1.494,2.242,2.242
		c-1.029,0.045-2.055,0.092-3.082,0.139c0.697,2.547,1.396,5.094,2.094,7.641h31.826c-7.596-11.107-15.002-22.592-22.656-33.58
		c-1.387-0.641-2.771-1.279-4.156-1.918c2.291,0,4.582,0,6.873,0c-6.08-2.031-12.227-4.008-20.461-4.316
		c1.705-0.801,3.41-1.598,5.115-2.398c-7.107-1.063-13.143-4.156-17.264-11.188c-3.971-5.637-6.42-12.535-7.832-20.303
		c2.291,5.436,4.582,10.869,6.873,16.305c-1.387-5.008-2.771-10.016-4.158-15.025c1.813,5.01,3.625,10.018,5.436,15.025
		c-1.012-4.102-2.023-8.205-3.035-12.309c1.012,2.131,2.023,4.264,3.035,6.395c-0.479-1.705-0.959-3.41-1.438-5.115
		c0.959,1.705,1.918,3.41,2.877,5.115c-0.053-1.121-0.105-2.24-0.158-3.357c0.957,1.439,1.918,2.879,2.877,4.316
		c-0.055-0.799-0.107-1.6-0.162-2.398c0.695,0.586,1.387,1.172,2.078,1.758c-0.051-0.639-0.105-1.277-0.16-1.918
		c0.693,0.854,1.389,1.705,2.08,2.559c0.16-0.533,0.32-1.064,0.479-1.6c0.854,0.641,1.705,1.281,2.559,1.918
		c0.318-0.586,0.641-1.172,0.959-1.756c0.533,0.318,1.064,0.639,1.6,0.959c32.387-20.377,21.773-55.982,39.322-53.391
		c0.348-1.484,1.018-2.402,2.398-2.08c0.695-3.143,0.268-6.66-0.32-10.229c2.877-14.6,7.035-21.104,12.469-19.504
		c-4.582-3.25-9.166-6.5-13.746-9.75c2.023,0.957,4.047,1.916,6.072,2.877c-3.09-2.184-6.18-4.369-9.271-6.555
		c1.975,0.479,3.943,0.959,5.916,1.439c-2.559-1.439-5.115-2.879-7.672-4.316c2.449,0.693,4.9,1.387,7.354,2.078
		c-2.986-1.705-5.971-3.41-8.955-5.115c1.76,0.639,3.52,1.279,5.275,1.92c-2.076-1.441-4.154-2.879-6.232-4.318
		c1.916,0.746,3.836,1.494,5.754,2.238c-2.238-1.545-4.477-3.092-6.713-4.637c1.277,0.693,2.557,1.387,3.836,2.08
		c-0.961-1.387-1.92-2.771-2.877-4.156c-1.279-0.533-2.559-1.066-3.836-1.6c-2.506,0.428-5.01,0.854-7.514,1.279
		c7.158,18.543,15.475,21.188,23.818,24.299c-2.459,0.541-4.424,1.604-15.986-7.354c-0.533,3.941-1.064,7.885-1.6,11.828
		c0.213,0.469,0.424,0.938,0.637,1.406c-0.313-0.033-0.623-0.068-0.936-0.104c0.588,0.572,1.176,1.143,1.768,1.715
		c-0.574-0.139-1.145-0.277-1.715-0.416c0.779,0.729,1.557,1.455,2.336,2.182c-0.553-0.313-1.107-0.623-1.66-0.936
		c0.881,0.918,1.766,1.836,2.646,2.754c-0.986-0.225-1.973-0.451-2.959-0.676c1.42,0.883,2.838,1.764,4.258,2.648
		c-1.158-0.381-2.318-0.762-3.48-1.141c1.715,1.244,3.43,2.49,5.143,3.736c-1.176-0.313-2.355-0.623-3.531-0.934
		c1.748,0.969,3.496,1.938,5.244,2.908c-1.592-0.381-3.184-0.762-4.777-1.143c1.443,1.736,4.49,2.67,7.166,3.947
		c-2.059-0.502-4.119-1.006-6.18-1.508c2.459,1.178,4.918,2.355,7.377,3.533c-2.842-1.213-5.68-2.424-8.518-3.637
		c-0.297-0.381-0.59-0.76-0.885-1.143c-0.484-0.346-0.969-0.691-1.453-1.037c0.363-0.055,0.727-0.104,1.09-0.156
		c-0.639-0.625-1.281-1.246-1.922-1.869c0.053-0.762,0.104-1.525,0.158-2.285c-0.643-4.951-1.283-9.904-1.922-14.854
		c-1.387,0.971-2.77,1.939-4.156,2.908c-0.283-1.25-0.564-2.5-0.85-3.75c0.051,1.578,0.098,3.154,0.146,4.732
		c-0.85-3.277-1.699-6.555-2.549-9.832c0.389,4.225,0.775,8.449,1.166,12.674c-1.703-6.174-3.143-12.691-2.768-21.631
		c1.201-1.773,2.803-3.012,4.588-4.008c-0.414-1.068-0.824-2.135-1.238-3.203c-0.461-0.072-0.922-0.145-1.385-0.219
		c-2.518,1.578-4.959,3.471-7.281,5.826c-0.754-2.258-1.508-4.514-2.26-6.771c0.268,2.766,0.535,5.533,0.803,8.301
		c-1.117-3.689-2.234-7.379-3.35-11.068c0.582,3.957,1.164,7.912,1.748,11.871c-1.068-4.178-2.139-8.352-3.205-12.529
		c-2.67-1.842-5.342-3.688-8.014-5.535c-0.689,5.682,3.291,15.684,6.191,30.08c-0.047-2.574-0.096-5.145-0.145-7.719
		c0.461,2.281,0.922,4.564,1.383,6.846c-0.168-2.428-0.34-4.855-0.51-7.283c0.559,3.084,1.117,6.166,1.676,9.248
		c-0.242-3.059-0.486-6.115-0.729-9.174c0.463,7.32,0.926,14.643,1.387,21.967c-0.09,5.336-3.023,19.207,7.879,29.975
		c-12.463-0.541-8.117-23.447-9.846-33.039c-1.578-10.119-4.578-21.66-8.225-33.848c-1.461,4.99-2,11.211-2.508,17.473
		c0.643-7.305-0.014-15.436,1.93-21.914c-1.42,3.227-2.977,6.352-5.502,8.785c0.096-0.547,0.191-1.094,0.289-1.641
		c-2.889,2.871-5.932,3.119-8.979,3.281c0.451-0.385,0.902-0.771,1.352-1.156c9.211-0.994,10.619-12.16,13.611-10.619
		c0.033-0.453,0.064-0.9,0.098-1.352c-5.105-5.102-7.934-10.883-7.434-17.666c1.971,5.295,4.615,7.549,7.336,9.461
		c-2.486-2.539-4.811-5.219-5.984-8.883c1.367,2.98,3.4,5.184,5.889,6.854c-0.387-0.354-0.771-0.707-1.16-1.061
		c1,0.16,1.996,0.322,2.994,0.482c-0.289-0.482-0.578-0.967-0.869-1.449c0.869,0.193,1.738,0.387,2.605,0.58
		c6.598,1.736,13.678,4.09,19.703,4.816c1.479,0.322,3.049,1.039,4.529,1.361c5.912,3.725,9.449,5.072,12.645,6.082
		c-1.254,0.129-2.51,0.258-3.764,0.385c2.445,0.58,4.891,1.16,7.338,1.738c1.885,0.223,2.854,1.285,3.877,2.375
		c6.053,11.449,12.594,22.494,18.648,33.945c-1.459,3.791-2.918,7.584-4.377,11.377c1.313-1.313,2.625-2.627,3.938-3.938
		c-4.564,15.055-11.746,27.49-19.473,39.385c1.313-1.314,2.625-2.627,3.938-3.939c-6.609,16.004-10.334,44.809-29.537,55.357
		c2.189-0.656,4.377-1.313,6.563-1.971c-2.625,2.627-5.25,5.252-7.875,7.879c4.814-1.533,9.627-3.064,14.441-4.596
		c1.969-2.461,3.936-4.922,5.906-7.383l-0.855,3.096c-1.611,3.691-3.223,7.381-4.832,11.07c0.875,0.146,1.75,0.291,2.625,0.438
		c8.693,13.109,17.389,26.221,26.084,39.33h22.48v-16.049c-0.58-1.197-1.16-2.393-1.74-3.59c-0.938-1.188-1.875-2.375-2.814-3.563
		c-0.113-0.072-0.227-0.143-0.34-0.213l-1.502-1.977c0.088,0.063,0.174,0.125,0.262,0.188c-0.57-0.721-1.139-1.443-1.711-2.166
		c-0.035-0.021-0.07-0.043-0.105-0.064L476.527,604.982L476.527,604.982z M469.518,617.25l0.055-0.057l-0.02,0.072
		C469.541,617.26,469.529,617.256,469.518,617.25L469.518,617.25z M187.981,505.836c1.667,1.295,3.333,2.592,5,3.889
		c-24.72,37.936-33.793,57.518-19.999,50.273c-13.239,16.295-26.479,32.59-39.718,48.885c14.443-25.738,14.443-27.775,0-6.111
		c-12.296,12.209-24.591,24.416-36.887,36.623v-10.053c19.153-19.582,46.344-61.313,37.997-39.068
		c7.407-11.852,14.814-23.701,22.22-35.553C174,536.689,185.388,520.162,187.981,505.836L187.981,505.836z M179.37,498.893
		c-21.89,25.363-35.834,43.1-21.387,33.607c-3.794,8.24-7.591,16.48-11.388,24.721c-2.479-11.674-28.737,19.043-50.218,41.242
		v-12.176c11.739-9.504,23.479-19.008,35.22-28.512c8.795-8.518,7.222-8.518-4.723,0c7.5-9.072,15-18.146,22.5-27.219
		c3.24-4.445,2.777-5.557-1.388-3.334c-10.721,7.27-20.006,11.432-35.553,29.166c0.102-6.432-7.029-0.43-16.056,7.992v-5.598
		c16.276-12.188,32.553-24.375,48.83-36.561C147.284,525.34,180.593,500.309,179.37,498.893L179.37,498.893z M436.412,265.221
		c-8.619-22.115-8.369-13.795-6.855-1.125C431.732,271.053,438.637,271.46,436.412,265.221L436.412,265.221z M439.859,200.904
		c-0.02,3.433-0.232,3.839-1.168,3.372c-8.297-0.409-3.27,10.083,4.65,8.477C440.191,209.253,442.506,206.377,439.859,200.904
		L439.859,200.904z M132.435,343.482c-1.107,3.877-3.48,8.07-7.12,12.581c2.438-6.592,6.329-15.041-14.479,8.071
		c5.572-11.832,13.325-25.882-14.459-3.792v-11.364C106.196,346.748,132.82,342.66,132.435,343.482L132.435,343.482z
		 M465.238,461.482c1.115,0.529,1.254,0.891,0.717,1.133l-10.463-3.438C455.492,459.178,464.119,460.951,465.238,461.482
		L465.238,461.482z M464.096,459.02c1.117,0.529,1.256,0.891,0.719,1.133l-10.463-3.438
		C454.352,456.715,462.979,458.488,464.096,459.02L464.096,459.02z M462.955,456.557c1.119,0.531,1.254,0.891,0.721,1.135
		l-10.465-3.439C453.211,454.252,461.838,456.025,462.955,456.557L462.955,456.557z M219.489,618.295
		c-2.983-9.641-5.968-19.283-8.952-28.924c-8.258,2.076-18.935,0.119-29.959-2.41c-5.132,9.361-11.854,19.332-17.906,26.857
		c18.277,0.16,21.086,12.502,32.024-19.627c0.117,2.869,0.229,5.74,0.345,8.607c2.525-1.262,5.05-1.146,7.576,0.346
		c1.72-2.525,3.443-5.051,5.166-7.576c-0.919,6.199-1.838,12.396-2.756,18.594C203.649,616.459,218.456,620.936,219.489,618.295
		L219.489,618.295z M236.019,665.471c-0.458-1.838-0.919-3.672-1.378-5.508c-4.477,0.113-8.953,0.229-13.429,0.342
		c22.382-8.953,1.492-23.186-17.217-4.477c4.247-10.33,0.688-12.854-10.676-7.574c-5.623,5.625-8.148,15.037-14.805,18.939
		c6.247-28.09-8.35-30.926-19.284-22.039c-0.688-8.035-5.51-10.1-14.463-6.199c-6.053,5.684-8.752,12.111-6.542,19.631
		c12.556,12.273,26.109,11.607,39.601,11.707C191.167,673.391,236.908,671.553,236.019,665.471L236.019,665.471z M419.674,672.242
		c-4.484-22.873-8.678-36.555-12.635-42.547c3.941,14.182,7.027,28.365,9.584,42.547H419.674L419.674,672.242z M401.869,619.359
		c0.449,2.098,0.9,4.193,1.35,6.291c-9.104,21.414-4.068,19.664,2.473,14.607c-6.156,11.875-11.635,20.439-8.766,5.842
		c-5.67,5.891-10.037,15.691-14.186,26.143h-6.021C384.367,652.965,392.279,634.268,401.869,619.359L401.869,619.359z
		 M388.611,575.086c0.375,2.398,0.748,4.795,1.123,7.191c-32.42,69.158-15.73,44.973,1.799,14.383
		c0.748,2.098,1.498,4.195,2.246,6.295c-12.654,13.904-18.551,32.639-24.777,44.418c-7.871,14.893-11.115,11.365-7.949-3.828
		C364.234,628.268,373.461,603.355,388.611,575.086L388.611,575.086z M377.463,548.35c1.191,6.566,2.314,13.15,7.719,18.764
		c-7.623,4.316-14.586,10.242-20.887,17.77C363.033,584.967,375.895,548.594,377.463,548.35L377.463,548.35z M406.736,593.572
		c0.977,6.24,2.582,10.6,4.361,14.434C409.898,603.107,408.539,598.268,406.736,593.572L406.736,593.572z M409.443,596.203
		c0.977,6.24,2.58,10.6,4.361,14.434C412.605,605.74,411.244,600.896,409.443,596.203L409.443,596.203z M425.004,556.213
		l-1.129-0.074l-2.555-10.301L425.004,556.213L425.004,556.213z M412.557,501.295c0.404,3.393-1.617,5.746-4.32,7.809
		C409.676,506.502,411.117,503.898,412.557,501.295L412.557,501.295z M419.275,512.217c0.563,4.744-2.264,8.037-6.043,10.922
		C415.248,519.496,417.262,515.857,419.275,512.217L419.275,512.217z M483.42,468.645l-0.057,1.793l2.775,4.107L483.42,468.645
		L483.42,468.645z M483.246,471.363v1.387l7.232,10.705L483.246,471.363L483.246,471.363z M489.668,580.488
		c-2.145,4.453-4.291,8.902-6.438,13.354c16.168,8.217,26.205,17.656,31.537,28.041v-3.803
		C511.059,609.973,503.848,598.541,489.668,580.488L489.668,580.488z M405.248,504.457c-4.494,0.439-23.035,8.766-26.084,15.195
		C377.848,518.121,404.459,503.373,405.248,504.457L405.248,504.457z M390.646,462.654c0,2.195,0,4.389,0,6.582
		c0.98,3.596,1.961,7.189,2.941,10.783c3.457,14.863,11.373,14.143,14.705,10.643c0.98,2.707,1.959,5.416,2.939,8.123
		c1.021,4.938-22.262,7.201-31.65,18.066c0,0-1.26-8.543-1.26-7.002s0.139,6.863,0.139,6.863c-1.68-4.504-3.033-9.824-3.219-18.066
		c-0.537-1.682,0.209-3.875,1.539-6.303C384.209,485.744,387.195,474.305,390.646,462.654L390.646,462.654z M392.77,440.883
		c-0.877,0.389-1.395,21.369-0.758,21.781c-0.713,1.566,0.207,3.861,0.553,3.379c0.023-0.529,0.045-1.059,0.068-1.586
		c0.713,1.057,1.426,2.113,2.137,3.17c0,0-0.689-3.17-0.137-2.137c0.551,1.033,1.998,3.102,1.998,3.102c0-0.689,0-1.379,0-2.068
		c0.689,1.012,1.379,2.023,2.068,3.035c-0.092-1.035-0.184-2.07-0.275-3.104c0.781,1.08,1.563,2.16,2.344,3.24
		c-0.092-0.551-0.184-1.104-0.277-1.654c0.6,0.873,1.197,1.746,1.793,2.619c-0.113-0.828-0.23-1.654-0.344-2.48
		c0.826,1.148,1.654,2.297,2.482,3.445c-0.23-0.896-0.461-1.793-0.689-2.688c0.734,1.01,1.469,2.021,2.205,3.033
		c-0.07-0.76-0.139-1.518-0.207-2.275c0.598,0.781,1.195,1.563,1.793,2.344c0-0.391,0-0.781,0-1.172
		c0.504,0.254,1.01,0.506,1.516,0.758c0,0-1.104-2.688-0.553-1.93c0.553,0.758,2,1.172,2,1.172c2.08-0.619,3.779-3.262,5.309-6.824
		c-0.482-0.553-0.965-1.104-1.447-1.654c0.09,0.596,0.184,1.195,0.275,1.791c-2.781-4.617-5.561-9.236-8.342-13.855
		c-0.092,0.346-0.184,0.689-0.275,1.035c2.367,4.113,4.732,8.227,7.1,12.338c-2.32-3.697-4.641-7.398-6.961-11.098
		c-0.07,0.621-0.139,1.24-0.207,1.863c1.699,3.008,3.4,6.02,5.102,9.027c-1.633-2.504-3.264-5.008-4.895-7.512
		c-0.484,0.994,0.832,3.607,2.207,6.273c-2.449-1.885-3.805-5.605-2.76-13.373c2.252,3.238,4.504,6.479,6.756,9.717
		c0.047-0.826,0.092-1.652,0.137-2.48c-2.111-3.055-4.227-6.111-6.34-9.166c2.045,2.686,4.09,5.375,6.133,8.064
		c-0.021-0.736-0.045-1.471-0.066-2.207c-1.77-2.412-3.541-4.824-5.311-7.236c1.748,1.975,3.494,3.951,5.24,5.926
		c0.047-0.848,0.092-1.697,0.137-2.549c-3.887-1.338-5.922-5.623-6.686-11.926C401.32,438.309,397.047,439.596,392.77,440.883
		L392.77,440.883z M456.109,445.02c1.119,0.428,1.254,0.773,0.721,1.068l-10.465-2.455
		C446.365,443.633,454.994,444.596,456.109,445.02L456.109,445.02z M454.969,442.664c1.119,0.428,1.256,0.773,0.721,1.066
		l-10.465-2.453C445.225,441.277,453.852,442.24,454.969,442.664L454.969,442.664z M453.83,440.309
		c1.115,0.426,1.254,0.773,0.719,1.066l-10.465-2.455C444.084,438.92,452.711,439.883,453.83,440.309L453.83,440.309z
		 M481.807,447.385c-0.84,0.59-1.088,1.635-0.035,3.674l6.963,9.117L481.807,447.385L481.807,447.385z M481.264,459.48
		c5.768,6.83,9.846,14.035,14.057,21.211C490.633,473.789,485.949,466.896,481.264,459.48L481.264,459.48z M408.691,434.084
		c1.605,3.951,3.213,7.904,4.818,11.855c0.996,0.611,1.992,1.221,2.99,1.832c6.838,0.441,13.721,0.969,20.818,1.926
		c4.721,0.844,9.443,1.373,14.164,1.447c3.375,1.156,6.748,2.313,10.121,3.469c3.984,0.836,7.969,1.67,11.951,2.506
		c2.121,0.771,4.242,1.543,6.361,2.314c0.418,0.418,0.836,0.836,1.254,1.252c4.047,6.875,8.096,13.75,12.143,20.625
		c-2.086-3.02-4.176-6.039-6.264-9.061c6.811,13.334,13.621,26.666,20.432,40c1.703-5.977,3.406-11.953,5.109-17.928
		c-0.578-0.031-1.158-0.064-1.734-0.096c0.352-0.42,0.705-0.836,1.059-1.254c-5.912-8.289-11.822-16.578-17.732-24.867
		c0.865,1.736,1.734,3.471,2.602,5.205c-4.883-7.035-9.768-14.07-14.65-21.107c0.031,0.676,0.064,1.35,0.098,2.025
		c5.043,7.549,10.086,15.1,15.131,22.648c-4.98-7.035-9.959-14.07-14.939-21.107c0.096,0.74,0.191,1.479,0.289,2.217
		c4.209,6.426,8.418,12.85,12.625,19.277c-4.979-6.973-9.957-13.945-14.938-20.916c0.449,0,0.9,0,1.35,0
		c-0.064-0.514-0.129-1.029-0.193-1.541c-0.354-0.611-0.707-1.221-1.061-1.832c0.289-0.32,0.578-0.643,0.869-0.963
		c-0.258-0.738-0.516-1.479-0.771-2.217c-0.033-0.578-0.064-1.158-0.098-1.736c-2.508-2.119-5.121-4.24-8.48-6.359
		c-2.602-2.295-5.205-2.727-7.807-2.891c-4.467-0.451-8.932-0.9-13.396-1.352c1.221,0.643,1.797,1.158,1.734,1.543
		c-4.209-1.611-8.418-2.219-12.625-2.795c1.348,0.033,2.697,0.064,4.047,0.098c-2.73-0.58-5.461-1.158-8.191-1.736
		c-7.471,0.162-14.859-0.16-22.072-1.543C411.6,432.656,410.025,433.168,408.691,434.084L408.691,434.084z M407.439,434.953
		c1.629,6.961,3.508,9.146,5.396,11.18c-1.818-3.682-3.416-7.598-4.723-12.049C407.889,434.373,407.664,434.664,407.439,434.953
		L407.439,434.953z M407.15,435.145c-2.576,5.369,2.51,11.834,6.938,13.492C410.314,445.266,407.584,441.088,407.15,435.145
		L407.15,435.145z M409.01,421.9c0.861,7.182,1.498,8.859,9.186,11.195c5.883,0.137,11.764,0.275,17.645,0.416
		c3.568,0.736,7.137,1.475,10.703,2.211c6.254,1.242,11.781,1.514,17.104,1.514c3.451,0.385,6.902,1.238,10.354,2.559
		c-0.465-0.816-0.93-1.631-1.396-2.443c1.359,1.24,2.715,2.482,4.074,3.723c-1.166-1.746-2.328-3.49-3.492-5.236
		c1.863,1.475,3.723,2.947,5.584,4.422c-1.629-1.861-3.258-3.723-4.885-5.584c1.395,0.736,2.793,1.473,4.188,2.211
		c-1.475-1.436-2.947-2.869-4.42-4.307c-0.234,0.467-0.467,0.932-0.699,1.396c-1.203-3.566-2.404-7.135-3.605-10.703
		c-11.443-0.307-22.068-1.975-32.576-3.838C426.365,422.627,413.422,418.965,409.01,421.9L409.01,421.9z M408.469,422.52
		c0.219,3.73,1.402,6.176,2.857,8.26c-1.158-0.557-2.217-0.277-4.014-6.176C407.568,423.393,408.006,422.902,408.469,422.52
		L408.469,422.52z M406.848,425.607c-0.258,1.672,0.205,3.654,1.391,5.945l-33.58,11.191l1.08,2.625l29.873-9.34
		c1.006-2.572,3.297-3.859,6.871-3.861C409.807,431.18,407.877,429.068,406.848,425.607L406.848,425.607z M418.273,419.199
		c-12.682-0.174-13.855,4.465-11.27,12.043c-3.963,1.234-7.928,2.471-11.889,3.705C402.125,417.338,409.822,411.695,418.273,419.199
		L418.273,419.199z M368.301,406.322c0.32,5.107-0.053,8.438-3.16,4.982c-7.428,2.27-7.59,10.316-6.717,19.188
		c1.732,2.447,0.934,3.289,0.283,4.225c-1.734,0.799-3.336,1.801-4.646,3.238c-0.852,1.826-2.102,3.32-4.225,4.084
		c-0.945,1.83-1.543,3.66,0.281,5.492c2.801,3.852,3.268,5.809,2.676,6.9c0.871,2.398,2.713,3.734,4.646,4.648
		c4.75,0.666,8.566-0.719,12.252-2.395c0.871,0.49,1.105,1.195,0.705,2.111c0.842-0.146,1.553-0.555,1.973-1.547
		c2.625-1.035,3.383-3.523,4.082-6.057c0.836-1.502,1.006-3.004-0.281-4.506c5.258-1.738,10.514-3.475,15.773-5.211
		c-1.648,5.867-2.195,11.736-1.127,17.604c-2.176,3.568-3.5,7.133-2.957,10.703c-2.551,9.947-7.314,16.943-12.395,23.518
		c-2.137,1.297-2.465,7.23-1.549,16.336c-21.111,27.07-37.885,58.984-49.43,96.748c21.266-35.121,38.016-58.086,51.965-73.514
		c0.141,0.752,0.281,1.504,0.422,2.256c-11.039,12.201-24.988,33.223-52.949,96.746c-2.641-7.137-4.541-4.676-6.338-0.846
		c11.613-64.176,28.307-102.938,43.094-151.246c0.502-2.332-0.107-2.756-1.832-1.268c-14.461,13.824-33.326,43.67-57.036,91.115
		c4.16-12.207,7.381-24.412,9.86-36.617c-14.931,7.602-39.415,56.451-57.599,95.904c0.235-1.738,0.468-3.473,0.704-5.209
		c-0.515,0.938-1.032,1.877-1.549,2.814c0.985-2.393,1.973-4.787,2.957-7.18c-1.031,1.5-2.063,3.002-3.098,4.504
		c1.315-2.674,2.631-5.352,3.945-8.025c-1.41,1.502-2.819,3.002-4.226,4.506c1.643-3.475,3.286-6.947,4.929-10.422
		c-1.596,2.113-3.193,4.225-4.789,6.336c1.643-3.377,3.286-6.758,4.929-10.139c-1.689,2.254-3.379,4.508-5.069,6.762
		c1.971-3.758,3.942-7.514,5.915-11.268c-2.065,2.395-4.131,4.789-6.197,7.184c2.16-3.756,4.319-7.512,6.478-11.268
		c-1.877,2.299-3.755,4.602-5.632,6.9c2.064-3.99,4.13-7.979,6.195-11.971c-2.158,2.629-4.318,5.26-6.478,7.887
		c2.114-3.754,4.225-7.512,6.339-11.266c-1.926,2.158-3.849,4.318-5.775,6.479c1.972-3.428,3.945-6.855,5.915-10.281
		c-1.736,2.252-3.472,4.508-5.21,6.76c1.831-3.615,3.661-7.229,5.493-10.844c-1.785,1.83-3.567,3.662-5.352,5.492
		c1.736-3.379,3.474-6.76,5.21-10.139c-1.502,1.596-3.003,3.191-4.506,4.787c1.783-3.053,3.567-6.102,5.352-9.154
		c-1.175,1.08-2.348,2.16-3.52,3.24c1.643-2.629,3.285-5.258,4.927-7.887c-1.266,1.033-2.533,2.064-3.801,3.1
		c1.548-2.725,3.098-5.447,4.647-8.168c-1.126,0.891-2.253,1.781-3.379,2.674c1.502-2.205,3.004-4.412,4.505-6.619
		c-1.267,0.705-2.535,1.41-3.802,2.113c1.315-2.018,2.63-4.037,3.944-6.055c-0.892,0.469-1.784,0.938-2.676,1.408
		c1.222-1.928,2.442-3.85,3.661-5.775c-0.938,0.611-1.877,1.221-2.815,1.83c1.173-2.018,2.347-4.035,3.52-6.055
		c-1.033,0.799-2.065,1.596-3.099,2.395c1.314-2.158,2.629-4.318,3.944-6.479c-0.798,0.424-1.596,0.848-2.395,1.268
		c1.079-1.877,2.159-3.754,3.238-5.633c-0.656,0.422-1.314,0.846-1.972,1.268c0.751-1.596,1.503-3.193,2.254-4.787
		c-0.658,0.188-1.314,0.375-1.972,0.563c1.08-1.455,2.16-2.91,3.239-4.365c-0.611,0.234-1.22,0.469-1.83,0.703
		c0.985-1.453,1.97-2.908,2.958-4.365c-0.564,0.141-1.127,0.281-1.691,0.422c0.892-0.986,1.783-1.971,2.676-2.957
		c-0.609,0.141-1.222,0.281-1.832,0.424c0.894-1.363,1.785-2.725,2.677-4.086c-0.471,0.141-0.939,0.281-1.409,0.424
		c1.173-1.455,2.347-2.91,3.52-4.365c-0.469,0.281-0.937,0.563-1.408,0.844c0.987-1.314,1.972-2.629,2.957-3.943
		c-1.266,0.658-2.533,1.314-3.801,1.973c1.643-1.455,3.287-2.912,4.929-4.367c-5.012,2.455-10.097,5.609-16.054,17.043
		c-9.114,20.504-17.737,41.502-25.913,62.949c4.269-15.941,8.875-31.709,14.083-47.178c-7.514,16.766-12.675,34.945-18.307,53.127
		c7.491-93.256-8.094-65.992-21.265-47.777c0.047-10.092,0.095-20.184,0.142-30.277c15.884,2.557,32.451,4.119,50.979-0.141
		c9.816-4.316,15.283-14.188,18.308-27.18c6.243-7.369,12.487-14.74,18.73-22.109c-1.105,24.592-6.866,48.254-19.435,70.555
		c3.568-2.631,7.136-5.258,10.703-7.887c-2.582,1.596-5.163,3.191-7.745,4.789c3.757-3.805,7.51-7.605,11.266-11.406
		c-2.394,1.83-4.788,3.66-7.182,5.49c0.61-1.125,1.22-2.252,1.83-3.381c2.77-2.721,5.54-5.443,8.309-8.166
		c-2.205,1.688-4.411,3.379-6.618,5.07c0.376-1.174,0.752-2.348,1.127-3.521c2.957-2.723,5.916-5.447,8.872-8.168
		c-2.16,1.643-4.32,3.285-6.479,4.93c0.235-0.846,0.469-1.691,0.705-2.535c2.582-2.535,5.163-5.07,7.745-7.605
		c-2.065,1.268-4.13,2.535-6.195,3.803c0.234-0.611,0.468-1.221,0.703-1.83c2.3-2.254,4.602-4.508,6.9-6.762
		c-1.736,1.27-3.474,2.535-5.21,3.805c0.142-0.752,0.281-1.504,0.422-2.254c2.489-2.77,4.975-5.539,7.465-8.311
		c-1.971,1.598-3.944,3.193-5.915,4.789c0.281-0.844,0.564-1.689,0.845-2.535c2.488-2.721,4.975-5.445,7.465-8.168
		c-1.879,1.596-3.758,3.193-5.634,4.789c0.141-0.846,0.282-1.691,0.421-2.535c1.973-2.254,3.945-4.508,5.917-6.76
		c-1.502,1.221-3.005,2.441-4.506,3.662c0.093-0.471,0.188-0.939,0.281-1.41c2.113-2.393,4.226-4.787,6.339-7.182
		c-1.877,1.502-3.756,3.006-5.634,4.508c0.141-1.033,0.282-2.066,0.423-3.098c2.112-2.113,4.225-4.227,6.338-6.338
		c-1.691,1.266-3.381,2.533-5.072,3.801c0.095-0.75,0.188-1.502,0.282-2.252c1.833-2.207,3.663-4.414,5.493-6.619
		c-1.455,1.268-2.91,2.535-4.367,3.803c0.143-0.611,0.283-1.221,0.424-1.83c1.971-2.537,3.943-5.072,5.914-7.605
		c-1.689,1.455-3.379,2.908-5.068,4.365c0.092-0.609,0.188-1.221,0.281-1.832c1.83-2.344,3.66-4.691,5.49-7.041
		c-1.689,1.363-3.377,2.725-5.068,4.084c0.047-0.467,0.094-0.938,0.141-1.406c1.971-2.49,3.943-4.977,5.916-7.465
		c-1.832,1.502-3.662,3.006-5.492,4.508c0.045-0.471,0.092-0.939,0.141-1.41c2.158-2.535,4.318-5.068,6.477-7.604
		c-2.064,1.689-4.131,3.379-6.195,5.068c2.018-2.723,4.037-5.443,6.055-8.168c-2.018,1.689-4.037,3.381-6.055,5.072
		c2.018-2.959,4.037-5.916,6.055-8.873c-1.502,1.361-3.004,2.723-4.506,4.084c1.689-2.535,3.381-5.07,5.07-7.605
		c-1.127,0.939-2.254,1.879-3.381,2.818c1.221-2.113,2.443-4.227,3.662-6.338c-1.174,1.125-2.348,2.252-3.521,3.379
		c3.803-5.211,7.605-10.422,11.406-15.631c4.959,17.785-2.797,44.24-16.334,74.637c2.674-2.582,5.352-5.162,8.025-7.746
		c-1.971,1.598-3.941,3.193-5.914,4.789c0.375-1.359,0.752-2.723,1.127-4.084c2.018-1.736,4.037-3.475,6.055-5.211
		c-1.172,0.799-2.348,1.598-3.52,2.396c0.705-1.691,1.408-3.381,2.111-5.072c1.551-1.596,3.098-3.191,4.648-4.787
		c-1.127,0.891-2.254,1.783-3.381,2.676c0.799-1.598,1.598-3.193,2.395-4.789c2.207-2.064,4.412-4.129,6.619-6.195
		c-2.02,1.643-4.037,3.285-6.057,4.928c0.188-0.703,0.377-1.406,0.564-2.111c1.971-2.113,3.943-4.225,5.914-6.338
		c-1.361,0.939-2.721,1.879-4.084,2.818c0-0.613,0-1.223,0-1.832c2.443-2.77,4.883-5.539,7.324-8.309
		c-1.877,1.783-3.756,3.566-5.635,5.352c0.049-0.938,0.096-1.877,0.141-2.818c2.066-2.439,4.133-4.881,6.197-7.322
		c-1.502,1.457-3.004,2.912-4.506,4.365c0.047-0.891,0.094-1.781,0.141-2.674c1.785-1.879,3.566-3.756,5.352-5.635
		c-1.549,1.363-3.1,2.723-4.646,4.086c0.141-0.988,0.281-1.973,0.422-2.957c1.877-2.16,3.754-4.32,5.633-6.479
		c-1.598,1.502-3.193,3.004-4.787,4.506c0.141-0.705,0.279-1.41,0.42-2.113c1.832-2.299,3.662-4.6,5.494-6.9
		c-1.877,1.598-3.756,3.191-5.635,4.789c0.236-0.799,0.471-1.598,0.705-2.395c1.643-1.973,3.285-3.943,4.93-5.914
		c-1.363,1.125-2.725,2.252-4.084,3.379c0.092-0.752,0.188-1.502,0.281-2.254c1.455-1.83,2.91-3.66,4.367-5.492
		c-1.363,1.035-2.725,2.066-4.086,3.098c0.094-0.891,0.189-1.783,0.281-2.674c1.738-2.066,3.473-4.131,5.211-6.197
		c-1.689,1.361-3.381,2.723-5.07,4.084c0.047-0.563,0.094-1.127,0.143-1.689c1.219-1.689,2.439-3.379,3.66-5.07
		c-1.125,1.031-2.254,2.066-3.381,3.098c-0.139-0.469-0.279-0.939-0.422-1.406c1.127-1.738,2.254-3.475,3.381-5.211
		c-1.127,1.031-2.254,2.064-3.381,3.098c-0.188-0.518-0.375-1.033-0.563-1.549c0.938-1.455,1.877-2.912,2.816-4.365
		c-0.844,0.75-1.689,1.5-2.535,2.252c-0.281-0.656-0.563-1.314-0.844-1.971c0.893-0.986,1.783-1.973,2.674-2.957
		c-1.078,0.984-1.877,1.406-2.957,2.395c-0.139-0.473-0.563-0.377-0.703-0.848c1.078-1.266,2.158-2.533,3.238-3.801
		c-1.033,0.799-2.064,1.596-3.098,2.395c0-0.469,0-0.939,0-1.408c0.846-1.127,1.689-2.254,2.535-3.381
		c-0.691,0.307-1.385,0.611-2.078,0.914c1.732-8.221,3.465-16.443,5.195-24.667c3.002,4.791,6,9.579,9.002,14.368
		c-2.654-5.078-5.311-10.156-7.963-15.234c2.566,3.925,5.135,7.848,7.703,11.771c-1.963-3.635-3.924-7.27-5.887-10.905
		c1.762,1.558,3.52,3.115,5.281,4.673c1.066,1.355,2.133,2.711,3.201,4.069c-0.691-1.328-1.385-2.655-2.076-3.982
		c0.807,0.605,1.615,1.212,2.424,1.818c1.295,1.68,2.59,3.36,3.885,5.042c-0.822-1.549-1.643-3.098-2.463-4.646
		c0.877,0.521,1.754,1.045,2.631,1.568c0.615,1.137,1.232,2.275,1.848,3.414c-0.318-1.008-0.633-2.016-0.951-3.023
		c1.361,1.213,2.725,2.426,4.086,3.639c-0.41-0.672-0.82-1.342-1.23-2.014c0.633,0.336,1.27,0.672,1.902,1.006
		c0.672,0.766,1.346,1.531,2.016,2.295c-0.262-0.67-0.521-1.342-0.783-2.014c0.486,0.186,0.971,0.373,1.455,0.559
		c1.119,1.139,2.24,2.279,3.359,3.416c-0.484-0.803-0.971-1.605-1.455-2.408c2.129,0.99,4.414,1.686,6.541,2.674
		c0.848-3.252,5.219-5.91,7.684-7.546c1.242-1.696,2.404-3.479,1.088-8.055c-1.27-2.069-2.539-4.138-3.809-6.206
		c0.053-2.888,1.193-4.685,2.828-5.987c-0.58,0.073-1.16,0.146-1.74,0.218c-0.545-4.989,1.658-5.856,3.701-6.967
		c-0.873,0.11-1.742,0.219-2.611,0.327c0.656-1.463,2.107-2.77,4.354-3.918c0.941,0.562,1.885,0.488,2.83-0.218
		c1.451-1.814,2.902-3.629,4.354-5.443c-0.045-1.096-0.41-1.241-1.088-0.436c-0.895-1.497-0.918-3.646-0.545-6.097
		c-0.146-0.554-0.037-1.447-1.197-0.652c-0.096-2.916-1.58-3.882-3.266-4.573c-1.162,0.951-2.32,0.952-3.484,0
		c-1.371-0.395-1.953-1.265-1.742-2.611c1.449-1,1.227-2.275,0.764-3.594c-0.363,0.256-0.725,0.509-1.09,0.763
		c1.004-2.104,1.137-4.208,0.871-6.312c0.557-2.231,0.086-5.837-0.324-9.363c-0.4,0.037-0.799,0.073-1.199,0.109
		c0.912-5.189,2.41-10.377,4.789-15.566c5.543-1.191,7.891-3.094,7.729-5.552c-0.008-1.925-0.672-4.07-1.631-6.314
		c-0.764,0.063-1.525-0.19-2.287-0.761c0.383-1.772,1.398-2.752,3.049-2.94c-0.072-1.56-0.146-3.12-0.219-4.68
		c0.217-2.94,0.436-5.88,0.652-8.818c1.484-3.438,3.465-6.184,6.533-7.402c1.424-1.369,3.088-2.499,6.422-1.959
		c7.428,1.702,9.91,4.927,13.063,7.945c0.072-0.435,0.146-0.871,0.219-1.306c3.613,1.672,6.135,0.946,8.162-0.87
		c3.67-2.615,4.613-6.469,4.791-10.669c1.963-3.534,1.199-7.814-0.326-12.3c-1.674-3.917-4.385-2.852-6.531-5.66
		c-4.246-1.174-8.492-0.602-12.736,0.76c-4.646,4.362-9.289,3.395-13.934,1.09c-3.51-3.83-6.781-7.861-8.383-13.28
		c-0.68-3.021-1.754-6.735-3.699-11.973c-2.01-9.323-2.283-14.925-2.068-19.487c1.854-2.414,3.213-5.124,3.482-8.491
		c3.047-3.771,6.096-5.854,9.143-8.272c4.158-0.083,7.227-0.817,9.799-1.852c2.869-0.749,5.957-0.626,9.145-0.106
		c3.4,0.622,6.148,1.681,8.6,2.937c1.357,0.432,2.674,0.782,4.68,2.504c1.596-0.398,2.346,0.896,3.266,1.851
		c1.307,2.43,2.613,3.59,3.918,3.482c1.453-0.216,1.816-1.521-0.217-5.224c-1.025-1.426-1.973-3.131-4.027-5.116
		c-4.701-3.03-7.504-6.438-10.561-9.797c-3.031-6.643-5.906-10.888-8.707-14.042c-0.629-1.993-1.594-3.811-0.652-7.621
		c2.84-1.098,3.549-5.231,5.953-4.456c4.867,1.575,9.789-2.084,11.857-0.953c1.51,0.826-0.063,3.117-0.939,5.19
		c-0.895,1.432-1.482,2.739-2.502,2.939c-1.945-0.306-3.742-0.76-8.057,1.306c0.363,0.509,0.727,1.016,1.088,1.524
		c-1.074,0.427-1.219,1.552-0.436,3.375c4.449,4.93,6.49,11.418,7.076,12.518c24.551,6.431,23.736,19.729,31.061,30.831
		c1.15,7.838-0.936,12.347-5.037,13.177c-0.23-0.461-0.461-0.922-0.691-1.383c-0.785-2.373-2.445-2.558-4.98-0.554
		c-1.852-1.199-3.594-2.462-4.564-8.022c-1.262-4.433-2.965-5.645-4.703-6.501c-1.596,1.573-3.07,2.081-4.428,1.522
		c-3.232,0.482-6.148-5.988-9.129-11.068c-2.854-2.136-6.75-3.026-10.791-3.734c-1.619,0.6-3.004,0.37-4.15-0.691
		c-2.986,1.118-5.646,1.095-8.16,0.552c-2.98,1.159-5.578,2.993-7.607,5.81c-0.891,2.563-2.271,4.473-3.875,6.088
		c0.133,3.304-0.564,5.985-1.383,8.575c-0.02,2.793-0.404,6.074,0.414,7.747c1.621,2.167,2.156,4.335,2.352,6.502
		c9.383,6.099,10.1,9.854,11.482,13.832c1.262,1.681,2.703,3.093,5.395,2.628c2.814-1.197,5.627-2.041,8.439-3.239
		c3.365-1.569,6.73-3.492,10.098-5.059c3.201-1.727,5.375-1.141,7.607-0.691c6.318,2.667,10.277,7.915,14.111,15.215
		c2.742,6.271,4.172,11.667,4.287,16.186c0.529,8.276-0.254,16.115-2.352,23.517c-1.775,3.342-4.865,4.496-9.268,3.458
		c-0.693-1.477-1.385-2.952-2.076-4.428c-1.594-2.662-2.23-5.08-2.627-7.053c-0.6-1.615-1.199-3.228-1.799-4.843
		c-0.691-0.138-1.383-0.276-2.074-0.416c-0.555,1.568-1.107,3.137-1.662,4.704c-3.416-0.237-4.76,0.675-6.223,1.521
		c0.992,0.222,1.453,0.867,1.383,1.938c-2.344,5.279-5.963,2.141-9.406,0.139c-4.379-6.359-8.094-6.899-11.619-5.81
		c1.342,1.511,1.191,2.649,0.83,3.733c-0.908,2.248-2.934,2.251-5.119,1.938c-1.014,1.99-2.225,3.448-3.873,3.735
		c-0.227,2.454-0.869,4.076-1.521,5.672c1.848,0.366,3.297,0.998,3.873,2.213c1.771,3.5,3.813,5.12,5.811,7.055
		c1.23,2.714,1.695,5.045,2.074,7.332c-0.801,3.074-2.693,4.586-4.98,5.533c-1.566,1.23-4.193,1.184-7.885-0.139
		c-1.77,1.485-3.615,2.923-7.746,2.906c-0.693,0.238-1.385,0.397-2.076,1.937c1.52,1.807,1.168,3.989,0.555,6.225
		c0.568,1.917,0.018,3.087-0.693,4.149c0.137,2.006,1.121,1.746,1.938,1.937c0.02,1.68-0.488,2.832-1.107,3.874
		c-0.461-0.426-0.92-0.426-1.381,0c1.768,1.014,2.416,2.027,2.902,3.042c10.447,2.36,10.891,7.517,12.789,12.349
		c-1.023,1.852-2.9,2.448-4.35,2.59c-1.1,1.707-0.039,3.254,0.594,4.96c-0.693,3.243-2.027,5.478-3.359,6.383
		c-5.855,2.232-4.861,5.738-5.949,8.024c8.244,2.773,8.871,12.933,6.225,20.058c-1.617-1.951-3.033-2.835-4.012-1.385
		c-0.982,2.107-1.227,3.783-3.061,5.037c0.738,0.277,0.109,0.359,0.848,0.637c-0.949-0.678-6.234,5.16-4.17,6.645
		c2.719,3.072,7.057,9.041,9.777,12.115c-1.359-2.367-2.721-4.736-4.082-7.102c3.529,4.027,7.055,8.059,10.58,12.088
		c-2.166-2.973-4.332-5.943-6.498-8.916c2.922,3.225,5.844,6.449,8.764,9.672c-1.156-2.166-2.316-4.332-3.475-6.498
		c2.266,2.871,4.533,5.742,6.801,8.613c-0.756-1.311-1.512-2.619-2.268-3.93c1.41,0.857,2.82,1.715,4.232,2.57
		c-1.916,2.92-3.578,6.094-4.686,9.822c-6.699,2.268-13.398,4.533-20.1,6.801c-0.602-1.461-1.355-2.824-3.172-3.477
		c0.15,1.865-0.908,1.713-3.174-0.453c-1.814,1.41-2.418,1.008-1.814-1.209c1.865,0.051,2.52-0.906,1.965-2.871
		c-1.965,0.303-2.316-0.605-1.057-2.719c2.52-2.318,3.023-4.434,1.51-6.348c-2.215-0.957-2.014-2.117,0.605-3.477
		c1.436-1.234,3.701,0.025,6.346,2.418c3.287,3.793,3.637-11.627,1.359-14.205c-3.281-2.332-3.762-5.191-0.15-8.824l1.803-3.268
		l0.361-3.306C377.291,396.306,370.352,401.727,368.301,406.322L368.301,406.322z M361.453,444.098
		c-3.49,1.238-5.771,3.848-5.076,5.809s4.109,2.553,7.602,1.314c2.064-0.732,3.705-1.943,4.559-3.219
		c-0.873,0.807-2.129,1.555-3.602,2.076c-3.217,1.141-6.293,0.791-6.848-0.777c-0.559-1.568,1.611-3.779,4.828-4.92
		c1.475-0.521,2.92-0.73,4.105-0.654C365.557,443.275,363.52,443.367,361.453,444.098L361.453,444.098z M151.604,395.666
		c6.405,14.741,4.417,26.334-3.312,35.774C144.426,419.516,146.634,407.592,151.604,395.666L151.604,395.666z M171.809,483.115
		c0.664,1.656,1.326,3.313,1.988,4.969c-36.244-15.313-22.83-4.24-2.319,10.6c-6.18,1.271-42.03-15.598-75.101-23.375v-5.045
		c14.986,5.498,29.974,10.996,44.959,16.494c27.935,4.086-26.941-19.652-1.657-13.58C150.39,476.49,161.101,479.803,171.809,483.115
		L171.809,483.115z M183.736,477.814c3.312,7.617,6.624,15.236,9.937,22.857c-2.65-1.326-5.3-2.65-7.95-3.977
		C183.57,490.402,183.238,484.109,183.736,477.814L183.736,477.814z M239.208,412.795c-5.245,11.004-12.812,19.432-17.283,31.08
		c-17.198-10.264-29.378-19.506-35.984-28.373c1.762,1.248,3.524,2.494,5.288,3.74c-2.106-2.32-4.214-4.643-6.32-6.965
		c2.666,2.365,5.33,4.729,7.997,7.094c-2.795-3.439-5.588-6.879-8.383-10.318c2.32,2.193,4.643,4.387,6.964,6.578
		c-2.191-2.451-4.385-4.9-6.578-7.352c2.021,1.59,4.041,3.182,6.062,4.771c-2.234-3.182-4.47-6.361-6.708-9.543
		c2.796,3.139,5.591,6.275,8.386,9.414c-2.752-3.74-5.503-7.48-8.255-11.221c2.924,2.881,5.846,5.762,8.771,8.643
		c-3.095-4.17-6.192-8.342-9.286-12.512c3.354,3.182,6.706,6.363,10.06,9.545c-2.279-2.58-4.556-5.158-6.836-7.738
		c2.795,2.32,5.59,4.643,8.383,6.963c-2.148-2.277-4.298-4.555-6.449-6.836c2.58,1.68,5.16,3.354,7.739,5.031
		c-1.763-1.891-3.524-3.783-5.289-5.676c1.85,1.205,3.698,2.41,5.546,3.613c-1.676-1.463-3.353-2.924-5.029-4.387
		c2.235,1.205,4.471,2.408,6.707,3.611c-1.376-1.375-2.752-2.752-4.127-4.127c1.59,1.076,3.182,2.15,4.772,3.225
		c-0.947-1.119-1.893-2.234-2.837-3.354c1.203,0.604,2.407,1.205,3.61,1.807c-0.43-0.475-0.859-0.947-1.29-1.418
		c1.375,0.6,2.752,1.203,4.127,1.805c-0.645-0.818-1.29-1.633-1.935-2.449c1.29,0.686,2.58,1.375,3.868,2.063
		c-0.128-0.602-0.256-1.203-0.385-1.807c1.247,0.947,2.493,1.893,3.74,2.838c8.169,2.709,16.337,5.416,24.504,8.125
		c1.077,4.127-5.847,7.48-8.383,12.77C229.752,419.418,234.523,416.191,239.208,412.795L239.208,412.795z M203.224,441.297
		c-3.492,5.256-8.415,10.307-14.316,15.219c1.504-1.807,3.009-3.611,4.514-5.418c-1.076,0.732-2.149,1.463-3.224,2.193
		c1.375-1.332,2.751-2.664,4.127-3.998c-1.333,0.816-2.666,1.633-3.999,2.451c1.333-1.334,2.666-2.666,3.999-4
		c-1.504,0.518-3.009,1.033-4.514,1.549c1.504-0.816,3.009-1.635,4.514-2.449c-0.902,0.256-1.805,0.516-2.708,0.771
		C193.658,444.414,197.742,442.436,203.224,441.297L203.224,441.297z M173.173,422.725c-0.946,13.025-1.892,26.053-2.838,39.078
		c-0.214-1.59-0.429-3.18-0.645-4.771c-0.516,0.129-1.031,0.26-1.548,0.387c0.56-1.203,1.119-2.408,1.677-3.611
		c-0.947,0.818-1.891,1.635-2.838,2.451c1.162-2.105,2.323-4.213,3.482-6.318c-0.903,1.289-2.192,1.805-3.094,3.094
		c0.73-2.064,1.849-3.354,2.579-5.418c-1.076,1.119-2.15,2.236-3.224,3.354c1.118-2.148,2.235-4.297,3.353-6.449
		c-1.075,1.205-2.148,2.408-3.225,3.613c0.903-1.678,1.807-3.354,2.708-5.031c-0.815,0.773-1.632,1.549-2.451,2.322
		c1.162-2.666,2.324-5.33,3.483-7.996c-0.73,1.117-1.462,2.234-2.194,3.354C168.709,434.248,171.08,428.543,173.173,422.725
		L173.173,422.725z M202.064,463.867c2.75-0.559,5.502-1.117,8.253-1.676c1.527-0.193,2.515,0.15,2.322,1.676
		c-1.151,6.525-3.048,7.084-4.901,7.996c-1.808-0.084-2.71-1.072-3.482-2.193c1.418-1.848,2.838-3.695,4.257-5.545
		c-1.764,1.334-3.527,2.666-5.289,4c1.075-1.42,2.15-2.838,3.225-4.258c-1.42,0.73-2.838,1.463-4.256,2.193
		C202.149,465.33,202.106,464.598,202.064,463.867L202.064,463.867z M213.541,439.232c1.549,1.033,3.019,2.189,4.644,3.096
		c2.691,1.504,2.156,3.332,1.161,5.416c-2.063,4.324-4.041,8.686-6.062,13.027c-4.214,0.43-8.427,0.859-12.64,1.291
		c-0.816,0.086-1.634,0.17-2.451,0.258c1.076-0.43,2.15-0.859,3.225-1.291c-1.118,0.043-2.235,0.086-3.353,0.129
		c-0.345-0.602-0.688-1.203-1.033-1.805c-0.987,0.471-1.978,0.945-2.965,1.418c0,0,4.385-5.031,3.609-3.611
		c-0.773,1.42-5.673,3.096-5.673,3.096c1.893-2.15,3.783-4.299,5.673-6.449c1.162-0.344,2.323-0.688,3.484-1.031
		c-0.559-0.172-1.117-0.344-1.678-0.516c1.807-0.773,3.612-1.547,5.417-2.32c-1.418,0.215-2.835,0.428-4.255,0.645
		c1.763-0.818,3.524-1.637,5.289-2.451c-1.247,0-2.495,0-3.741,0c1.162-0.518,2.322-1.033,3.481-1.547
		C208.296,444.135,210.92,441.684,213.541,439.232L213.541,439.232z M310.021,433.309c-1.139,2.211-2.279,4.426-3.42,6.639
		c-4.358,4.627-8.717,9.254-13.077,13.881c2.817-2.549,5.634-5.096,8.45-7.645c-0.402,0.871-0.806,1.744-1.208,2.615
		c-2.812,14.904-9.51,27.688-21.365,37.658c-1.438,1.783-2.877,3.563-4.316,5.344c0.445-0.17,0.891-0.342,1.336-0.514
		c-2.509,7.031-5.299,13.969-9.456,20.453c-1.096,1.404-2.26,2.709-3.906,3.287c-14.806,5.725-36.419,3.545-43.267,1.029
		c7.109,0.941,14.303,1.455,21.685,1.027c-4.693-0.193-9.386-0.414-14.079-1.439c5.02,0.246,9.999,0.324,14.901,0.104
		c-4.933-0.451-9.866-1.063-14.798-1.748c5.246,0.234,10.402,0.246,15.416-0.102c-5.037-0.203-10.072-0.67-15.108-1.338
		c5.071,0.232,10.141,0.232,15.211,0c-5.448-0.383-10.894-0.834-16.342-1.334c5.4,0.215,10.674,0.098,15.724-0.617
		c-5.273,0.039-10.55-0.369-15.826-1.027c5.258,0.168,10.406,0.043,15.313-0.721c-4.768-0.068-9.606-0.48-14.49-1.131
		c10.433,0.6,16.277,0.205,15.415-1.645c-4.099,0.938-9.823,0.162-16.136-1.232c-5.743-1.576-11.022-1.758-16.444-2.363
		c-9.497-7.787-5.815-14.381,1.029-17.369c1.919,4.418,4.11,7.469,6.577,9.146c2.582-6.377,6.944-9.779,11.203-13.359
		c4.419,0.137,8.667,0.102,12.537-0.311c15.854,5.961,18.189,8.268,23.226,11.307c-1.094-1.061-2.19-2.123-3.287-3.186
		c1.405,0.855,2.81,1.711,4.214,2.568c-0.582-0.857-1.164-1.713-1.747-2.568c1.234,0.82,2.466,1.645,3.699,2.465
		c-1.027-1.131-2.055-2.26-3.083-3.391c1.098,0.238,2.194,0.48,3.29,0.719c-0.993-0.617-1.987-1.232-2.98-1.85
		c1.097,0,2.192,0,3.288,0c-1.062-0.377-2.124-0.754-3.186-1.129c0.617-0.273,1.234-0.547,1.851-0.824
		c-0.824-0.342-1.645-0.684-2.468-1.027c0.755-0.035,1.508-0.066,2.262-0.104c-0.924-0.615-1.85-1.232-2.774-1.85
		c0.102-0.479,0.206-0.959,0.308-1.438c2.055-1.404,4.111-2.811,6.167-4.213c-1.474,0.377-2.948,0.752-4.421,1.131
		c1.234-0.754,2.468-1.508,3.701-2.262c-1.973,0.787-3.193,1.574-6.578,2.361c-1.78,0.447-3.563,0.893-5.343,1.338
		c-1.714-0.137-3.427-0.275-5.14-0.41c-6.556-0.863-13.038-1.506-19.321-1.543c0.137-2.158,2.33-4.453,6.577-6.885
		c0.069-0.479,0.137-0.959,0.207-1.439c1.822,0.715,3.051,0.535,4.316,0.41c2.094,1.131,2.982,2.502,3.701,3.906
		c2.191-0.891,5.137-3.289,8.426-6.371c5.482,0.82,10.963,1.645,16.443,2.465c-4.965-1.164-9.935-2.328-14.902-3.492
		c6.954-7.676,12.606-12.875,15.109-13.672C286.216,447.453,298.39,441.004,310.021,433.309L310.021,433.309z M326.41,357.106
		c-0.613,2.755-1.223,5.509-1.836,8.261c-8.799,9.606-30.467,26.338-48.651,39.932c-2.043-0.822-3.011,0.506-3.825,2.143
		c0.868-1.635,0.715-2.857-0.459-3.674c0.816-3.67,1.634-7.342,2.449-11.015c-2.093,11.854-8.415,16.536-5.509,17.901
		c0.384,2.293,2.729,2.906,5.967,2.752c11.213,3.033,21.581-5.113,32.739-10.402c3.469-2.658,6.936-5.381,10.404-10.096
		c4.387-4.438,7.355-9.6,10.402-14.689C330.596,374.042,328.279,365.335,326.41,357.106L326.41,357.106z M318.396,256.199
		c17.793,26.254,19.162,46.822,17.123,66.211c-0.379-2.758-0.76-5.517-1.141-8.275c-0.762,2.948-1.523,5.897-2.283,8.848
		c0.189-3.14,0.381-6.281,0.57-9.419c-0.762,2.569-1.521,5.137-2.283,7.705c0.285-3.138,0.572-6.278,0.855-9.417
		c-0.666,2.094-1.332,4.186-1.996,6.28c0.094-2.854,0.189-5.708,0.285-8.563c-0.762,1.904-1.523,3.805-2.283,5.709
		c0.189-2.76,0.381-5.519,0.57-8.278c-0.855,2.284-1.713,4.567-2.568,6.85c0.094-2.759,0.191-5.518,0.283-8.275
		c-0.758,2.188-1.521,4.375-2.281,6.564c-0.096-2.95-0.189-5.898-0.285-8.847c-0.57,2.283-1.143,4.565-1.711,6.85
		c-0.191-2.95-0.383-5.898-0.574-8.848c-0.664,2.567-1.33,5.138-1.996,7.705c-0.191-3.424-0.381-6.85-0.57-10.273
		c-0.666,2.378-1.332,4.755-1.998,7.133c-0.189-2.948-0.381-5.898-0.57-8.847c-0.285,1.714-0.572,3.426-0.855,5.138
		c-0.857-2.758-1.715-5.518-2.57-8.276c0,2.093,0,4.186,0,6.278c-1.236-2.473-2.473-4.946-3.709-7.419
		c0.189,1.998,0.381,3.996,0.57,5.994c-1.713-2.664-3.424-5.328-5.137-7.991c0.761,2.188,1.522,4.374,2.281,6.563
		c-2.281-2.949-4.565-5.898-6.848-8.847c1.237,2.664,2.473,5.326,3.71,7.991c-2.188-3.043-4.376-6.088-6.565-9.133
		c1.333,2.854,2.664,5.709,3.997,8.563c-2.378-3.139-4.756-6.279-7.134-9.418c1.236,3.044,2.473,6.089,3.71,9.133
		c-2.284-3.234-4.567-6.47-6.85-9.702c1.333,2.853,2.665,5.707,3.996,8.561c-2.094-2.474-4.185-4.947-6.28-7.419
		c1.333,2.567,2.665,5.136,3.995,7.705c-2.473-2.569-4.945-5.138-7.419-7.705c1.522,2.567,3.045,5.136,4.566,7.705
		c-2.283-2.664-4.566-5.327-6.851-7.992c1.523,2.759,3.045,5.519,4.566,8.276c-2.472-2.854-4.945-5.708-7.419-8.562
		c1.618,2.76,3.234,5.517,4.852,8.277c-2.188-2.284-4.375-4.567-6.563-6.849c1.425,2.473,2.854,4.945,4.28,7.418
		c-2.472-2.377-4.946-4.755-7.42-7.134c1.903,2.759,3.806,5.518,5.708,8.276c-2.473-2.284-4.945-4.565-7.42-6.85
		c1.427,2.569,2.854,5.138,4.28,7.706c-2.377-2.378-4.755-4.756-7.133-7.135c1.616,2.854,3.233,5.708,4.852,8.563
		c-2.284-2.188-4.567-4.377-6.849-6.565c1.331,2.283,2.664,4.567,3.995,6.849c-2.473-2.758-4.947-5.517-7.42-8.274
		c1.903,3.042,3.805,6.087,5.707,9.131c-2.471-2.188-4.945-4.376-7.42-6.563c1.522,2.664,3.045,5.327,4.566,7.991
		c-2.472-2.378-4.945-4.756-7.419-7.136c1.428,2.379,2.853,4.758,4.281,7.136c-1.998-2.093-3.996-4.186-5.993-6.279
		c1.332,2.949,2.664,5.899,3.996,8.847c-2.379-2.378-4.757-4.755-7.136-7.133c1.522,2.378,3.043,4.755,4.566,7.133
		c-2.282-1.807-4.566-3.614-6.85-5.421c1.714,2.473,3.426,4.946,5.138,7.418c-2.284-1.901-4.565-3.804-6.85-5.708
		c1.428,2.378,2.854,4.757,4.281,7.136c-2.95-1.712-5.898-3.426-8.847-5.138c1.998,2.475,3.996,4.948,5.994,7.42
		c-2.854-1.712-5.708-3.424-8.563-5.136c1.807,2.092,3.614,4.185,5.423,6.277c-2.283-1.234-4.566-2.473-6.85-3.71
		c2.093,2.188,4.186,4.377,6.278,6.564c-2.854-1.426-5.708-2.854-8.562-4.279c2.188,2.188,4.376,4.375,6.564,6.563
		c-2.473-1.618-4.947-3.234-7.42-4.852c2.284,2.188,4.567,4.376,6.85,6.564c-2.189-1.522-4.376-3.045-6.563-4.565
		c1.711,2.187,3.423,4.374,5.137,6.563c-1.998-1.523-3.996-3.044-5.994-4.567c1.902,2.377,3.806,4.756,5.708,7.136
		c-2.759-1.903-5.517-3.805-8.278-5.709c2.284,2.569,4.568,5.137,6.851,7.706c-2.092-1.332-4.186-2.664-6.278-3.995
		c1.998,2.092,3.996,4.186,5.994,6.278c-2.188-1.522-4.375-3.043-6.566-4.565c2.19,2.282,4.378,4.565,6.566,6.849
		c-2.378-1.332-4.757-2.664-7.136-3.996c1.999,2.284,3.997,4.565,5.994,6.85c-2.093-1.521-4.185-3.044-6.279-4.565
		c2.188,2.471,4.376,4.945,6.565,7.42c-1.997-1.332-3.995-2.665-5.993-3.997c1.808,2.188,3.614,4.376,5.422,6.563
		c-1.902-1.427-3.806-2.853-5.708-4.28c2.188,2.568,4.376,5.136,6.564,7.706c-2.092-1.047-4.186-2.095-6.278-3.14
		c1.998,2.284,3.996,4.565,5.993,6.85c-2.188-1.332-4.377-2.664-6.565-3.995c2.188,2.187,4.376,4.375,6.565,6.563
		c-2.282-1.332-4.567-2.664-6.849-3.996c2.092,1.999,4.186,3.996,6.278,5.994c-2.092-1.142-4.186-2.282-6.278-3.424
		c2.282,2.282,4.566,4.566,6.849,6.85c-1.331-0.666-2.663-1.333-3.995-1.997c7.373,7.182,14.126,14.981,19.977,23.687
		c0.333-6.992-0.047-13.748-1.998-19.977c5.661,4.756,9.752,10.56,13.129,16.838c0.189-1.617,0.381-3.235,0.57-4.852
		c1.712,3.234,3.039,2.833,5.138-0.572c5.718-9.275,12.177-18.075,18.265-27.112c1.426-1.045,2.855-2.092,4.28-3.139
		c1.047-1.808,2.093-3.615,3.14-5.421c18.268-1.287,28.162,6.324,34.248,17.979c-12.111-9.257-14.191-7.818-14.842-4.852
		c-11.889,14.667-23.818,29.313-41.096,41.668c-1.047-1.426-2.095-2.854-3.14-4.28c0.846,5.507-0.345,8.91-2.569,11.13
		c-1.136-6.506-2.564-10.692-4.28-12.557c-1.36,8.916-3.847,12.696-6.563,15.411c-0.13-3.015-0.307-6.026-1.999-8.847
		c-0.682,3.488-1.682,6.427-3.139,8.562c-0.058-6.664-5.191-12.024-7.136-19.122c0,0.95,0,1.903,0,2.853
		c-5.278-8.11-10.89-15.391-17.692-19.691c-1.617-1.142-3.236-2.284-4.853-3.426c-1.142-1.141-2.282-2.282-3.425-3.423
		c0,1.044,0,2.091,0,3.138c-1.426-1.617-2.854-3.235-4.28-4.851c0.572,1.332,1.14,2.663,1.712,3.995
		c-1.808-2.282-3.616-4.567-5.423-6.849c0.667,1.712,1.332,3.424,1.998,5.135c-1.808-2.281-3.615-4.564-5.422-6.849
		c0.951,1.807,1.901,3.617,2.854,5.424c-2.188-2.188-4.376-4.377-6.563-6.565c1.712,2.188,3.423,4.377,5.135,6.565
		c-2.757-2.474-5.517-4.948-8.275-7.422c1.142,1.904,2.284,3.805,3.424,5.708c-2.378-2.854-4.756-5.708-7.134-8.563
		c1.236,2.57,2.473,5.138,3.71,7.706c-2.188-2.568-4.375-5.136-6.564-7.706c1.236,2.188,2.473,4.376,3.71,6.566
		c-2.377-1.713-4.757-3.426-7.136-5.137c0.666,1.142,1.332,2.282,1.998,3.424c-1.045-0.381-0.952-0.477-1.998-0.855
		c-1.179,7.197-3.889,14.253,1.142,19.121c12.272,13.507,24.544,27.019,36.815,40.526c-0.855-1.617-1.711-3.234-2.567-4.85
		c2.474,2.377,4.947,4.754,7.419,7.133c1.713-0.666,3.427-1.332,5.139-1.998c5.654-0.375,8.009-4.875,10.56-9.132
		c-0.644,2.584-1.63,4.938-2.855,7.134c3.268-1.852,6.251-4.131,9.132-6.564c-0.728,2.697-1.543,5.306-2.854,7.421
		c1.696-0.869,3.075-1.975,3.996-3.426c-0.191,1.713-0.38,3.426-0.57,5.139c1.735-3.617,2.752-7.23,3.709-10.846
		c0.931,1.778,1.423,4.041-1.143,9.703c-1.045,3.139-2.092,6.279-3.139,9.418c-1.498,23.832-5.065,43.521-11.129,58.221
		c5.446-3.9,11.202-9.037,17.409-15.982c2.992-2.607,6.268-4.836,10.559-5.707c12.725-4.344,25.098-11.658,37.389-19.691
		c-2.008,6.125-11.604,16.443-12.802,19.242c-1.81,7.689-4.136,14.893-7.463,21.283c6.385-8.756,9.281-20.58,16.839-29.967
		c6.279-11.131,16.922-17.068,21.404-36.816c1.094-7.135,1.951-14.745,2.283-23.403c2.168-14.11,7.926-19.552,10.844-40.525
		C352.98,305.426,340.803,264.614,318.396,256.199L318.396,256.199z M207.663,223.094c-0.096,1.998-0.19,3.995-0.286,5.991
		c16.506-11.01,37.529-11.628,61.646-5.136C254.45,217.164,236.713,213.876,207.663,223.094L207.663,223.094z M346.65,293.015
		c4.816-2.39,10.881-86.654,4.281-132.71c1.434,42.417-2.574,78.308-12.559,107.024C342.75,275.891,345.32,284.453,346.65,293.015
		L346.65,293.015z"/>
</g>
</svg>
